<?xml version="1.0" standalone="no"?><!-- Generator: Gravit.io --><svg xmlns="http://www.w3.org/2000/svg" xmlns:xlink="http://www.w3.org/1999/xlink" style="isolation:isolate" viewBox="0 0 372.591 319.079" width="372.591" height="319.079"><defs><clipPath id="_clipPath_0T9zl4MdPGfO6TeqMvba42IUxgptlFHb"><rect width="372.591" height="319.079"/></clipPath></defs><g clip-path="url(#_clipPath_0T9zl4MdPGfO6TeqMvba42IUxgptlFHb)"><path d=" M 182.171 303.954 L 185.295 305.449 C 186.149 305.857 187.014 306.215 187.891 306.504 C 193.308 293.365 199.055 280.364 205.137 267.522 C 193.112 272.886 180.041 276.325 166.314 277.449 C 169.635 282.784 172.893 288.155 176.09 293.569 C 178.133 297.022 180.161 300.483 182.171 303.954 Z  M 286.459 94.037 L 287.665 84.944 C 289.501 71.103 280.165 58.255 266.435 55.725 L 242.984 51.403 C 237.879 50.462 233.472 47.262 231 42.697 L 219.645 21.729 C 212.995 9.453 197.888 4.546 185.295 10.569 L 163.783 20.858 C 159.099 23.098 153.652 23.098 148.969 20.858 L 127.459 10.569 C 114.864 4.546 99.757 9.453 93.109 21.729 L 81.753 42.696 C 79.28 47.261 74.874 50.461 69.769 51.402 L 46.317 55.723 C 32.59 58.254 23.252 71.103 25.088 84.943 L 28.226 108.58 C 28.907 113.727 27.225 118.906 23.648 122.668 L 7.216 139.95 C -2.405 150.066 -2.405 165.948 7.216 176.067 L 23.648 193.348 C 27.225 197.11 28.908 202.289 28.226 207.434 L 25.088 231.073 C 23.252 244.914 32.589 257.762 46.317 260.293 L 69.771 264.615 C 74.874 265.556 79.281 268.755 81.753 273.321 L 93.109 294.287 C 99.757 306.563 114.864 311.47 127.457 305.449 L 148.969 295.16 C 153.652 292.92 159.099 292.92 163.783 295.16 L 170.925 298.576 C 170.64 298.093 170.355 297.611 170.07 297.129 C 166.235 290.643 162.31 284.219 158.294 277.842 C 157.656 277.853 157.017 277.858 156.377 277.858 L 156.377 277.858 C 90.186 277.858 36.525 224.2 36.525 158.009 C 36.525 91.817 90.186 38.159 156.377 38.159 C 206.511 38.159 249.456 68.943 267.327 112.647 C 273.614 106.35 279.993 100.147 286.459 94.037 Z  M 293.192 126.967 L 289.105 122.669 C 285.528 118.907 283.845 113.728 284.529 108.581 L 284.99 105.104 C 279.946 109.959 274.957 114.872 270.026 119.842 C 273.129 129.1 275.137 138.86 275.899 148.968 C 281.488 141.497 287.255 134.162 293.192 126.967 Z  M 298.053 132.079 L 305.537 139.95 L 305.537 139.95 C 315.158 150.066 315.158 165.948 305.537 176.067 L 289.105 193.348 C 285.528 197.11 283.846 202.289 284.529 207.434 L 287.665 231.073 C 289.501 244.912 280.165 257.762 266.437 260.293 L 242.984 264.615 C 237.879 265.555 233.473 268.755 231 273.321 L 219.645 294.287 C 214.632 303.542 204.812 308.608 194.886 307.943 C 200.318 294.792 206.1 281.786 212.21 268.939 C 213.258 266.736 214.317 264.537 215.385 262.344 C 251.076 242.12 275.363 204.111 276.206 160.36 C 277.801 158.149 279.418 155.954 281.05 153.769 C 286.548 146.403 292.217 139.172 298.053 132.079 Z " fill="rgb(102,102,102)"/><path d=" M 231.875 149.57 C 232.067 149.363 232.258 149.156 232.45 148.949 C 241.64 139.029 250.98 129.239 260.45 119.579 C 260.451 119.578 260.452 119.577 260.453 119.576 C 245.14 76.89 204.265 46.286 156.376 46.286 C 95.411 46.286 45.814 95.884 45.814 156.849 C 45.814 216.169 92.772 264.727 151.474 267.282 C 149.67 264.519 147.827 261.781 145.96 259.059 C 142.34 253.779 138.61 248.589 134.75 243.489 C 127.76 234.229 120.31 225.319 112.41 216.819 C 108.57 212.689 104.64 208.649 100.61 204.709 C 96.13 200.329 91.56 196.039 86.91 191.839 C 86.57 189.419 86.89 186.949 87.83 184.699 C 88.56 183.029 89.71 181.579 91.17 180.489 C 92.59 179.459 94.2 178.729 95.9 178.329 C 97.66 177.919 99.47 177.719 101.27 177.749 C 102.72 177.759 104.16 177.849 105.59 178.019 C 107.15 178.199 108.7 178.459 110.24 178.769 C 113.65 179.479 117.03 180.369 120.35 181.449 C 124.02 182.619 127.65 183.919 131.24 185.329 C 135.01 186.809 138.75 188.379 142.45 190.029 C 149.67 193.239 156.81 196.649 163.85 200.229 C 169.21 202.959 174.55 205.729 179.86 208.559 C 180.68 207.549 181.51 206.549 182.35 205.549 C 184.53 202.929 186.72 200.329 188.93 197.739 C 195.16 190.449 201.47 183.229 207.84 176.069 C 214.75 168.28 221.741 160.557 228.799 152.898 L 222.575 152.898 L 222.575 152.898 L 222.575 103.572 L 231.875 103.572 L 231.875 149.57 Z  M 105.46 112.391 L 83.483 112.391 L 83.483 123.826 L 103.255 123.826 L 103.255 132.645 L 83.483 132.645 L 83.483 144.08 L 105.46 144.08 L 105.46 152.898 L 74.183 152.898 L 74.183 103.572 L 105.46 103.572 L 105.46 112.391 L 105.46 112.391 Z  M 114.002 152.898 L 114.002 103.572 L 130.674 103.572 Q 136.53 103.572 141.214 105.363 Q 145.899 107.155 149.206 110.427 Q 152.512 113.699 154.269 118.246 Q 156.026 122.793 156.026 128.235 Q 156.026 133.747 154.269 138.293 Q 152.512 142.84 149.206 146.078 Q 145.899 149.316 141.214 151.107 Q 136.53 152.898 130.674 152.898 L 114.002 152.898 L 114.002 152.898 Z  M 123.302 144.08 L 130.26 144.08 Q 134.325 144.08 137.425 142.943 Q 140.525 141.806 142.592 139.74 Q 144.659 137.673 145.692 134.745 Q 146.726 131.817 146.726 128.235 Q 146.726 124.653 145.692 121.725 Q 144.659 118.797 142.592 116.731 Q 140.525 114.664 137.425 113.527 Q 134.325 112.391 130.26 112.391 L 123.302 112.391 L 123.302 144.08 L 123.302 144.08 Z  M 163.535 152.898 L 163.535 103.572 L 172.698 103.572 L 187.785 129.682 L 188.336 129.682 L 203.423 103.572 L 212.655 103.572 L 212.655 152.898 L 203.423 152.898 L 203.423 128.58 L 203.974 120.313 L 203.423 120.313 L 190.885 142.427 L 185.305 142.427 L 172.698 120.313 L 172.146 120.313 L 172.698 128.58 L 172.698 152.898 L 163.535 152.898 L 163.535 152.898 Z  M 159.901 267.352 C 179.158 266.749 197.187 261.195 212.75 251.912 C 217.968 241.477 223.437 231.174 229.15 220.999 C 236.52 207.859 244.33 194.979 252.55 182.359 C 257.17 175.271 261.93 168.28 266.829 161.386 C 266.908 159.884 266.938 158.37 266.938 156.849 C 266.938 146.552 265.523 136.579 262.877 127.114 C 254.327 135.868 245.896 144.739 237.58 153.709 C 229.31 162.629 221.14 171.629 213.07 180.719 C 206.73 187.849 200.46 195.039 194.26 202.289 C 192.06 204.859 189.88 207.439 187.72 210.039 C 185.67 212.479 183.67 214.959 181.71 217.469 C 180.17 216.659 178.64 215.839 177.11 215.029 C 171.66 212.119 166.18 209.269 160.68 206.469 C 153.74 202.939 146.72 199.589 139.61 196.419 C 136 194.819 132.35 193.289 128.67 191.849 C 125.22 190.489 121.73 189.239 118.2 188.109 C 115.12 187.109 111.99 186.279 108.82 185.629 C 107.48 185.349 106.12 185.129 104.75 184.969 C 103.58 184.829 102.39 184.749 101.21 184.749 C 99.96 184.729 98.71 184.859 97.49 185.149 C 96.71 185.329 95.98 185.659 95.33 186.119 C 94.87 186.469 94.51 186.929 94.27 187.459 C 94.1 187.869 93.98 188.289 93.89 188.719 C 97.83 192.319 101.7 195.979 105.5 199.709 C 109.61 203.729 113.62 207.839 117.54 212.049 C 125.6 220.729 133.21 229.819 140.34 239.269 C 144.26 244.459 148.05 249.739 151.73 255.099 C 154.507 259.145 157.233 263.229 159.901 267.352 Z  M 224.886 243.572 C 245.763 227.042 260.557 203.149 265.304 175.851 C 262.967 179.268 260.671 182.712 258.41 186.179 C 250.27 198.669 242.55 211.419 235.25 224.419 C 231.701 230.753 228.242 237.136 224.886 243.572 Z " fill="rgb(102,102,102)"/><path d=" M 90.279 190.169 C 125.766 222.464 148.7 251.531 186.662 318.896 C 269.182 110.595 382.18 57.114 367.851 47.894 C 338.86 28.44 197.819 191.496 180.763 213.008 C 160.254 202.147 90.279 164.186 90.279 190.169 Z " fill-rule="evenodd" fill="rgb(45,186,247)"/></g></svg>